<svg width="133" height="172" viewBox="0 0 133 172" fill="none" xmlns="http://www.w3.org/2000/svg">
<g filter="url(#filter0_d)">
<path d="M59.0939 44.3931C59.0939 45.6345 58.0343 46.6793 56.6782 46.6793C55.322 46.6793 54.2624 45.6345 54.2624 44.3931V41.4212C54.2624 40.1797 55.322 39.135 56.6782 39.135C58.0343 39.135 59.0939 40.1797 59.0939 41.4212V44.3931Z" fill="#3B42EE" stroke="#DDC6C6"/>
<path d="M77.7549 44.3931C77.7549 45.6345 76.6952 46.6793 75.3391 46.6793C73.983 46.6793 72.9233 45.6345 72.9233 44.3931V41.4212C72.9233 40.1797 73.983 39.135 75.3391 39.135C76.6952 39.135 77.7549 40.1797 77.7549 41.4212V44.3931Z" fill="#3B42EE" stroke="#DDC6C6"/>
<mask id="path-3-inside-1" fill="white">
<path d="M126.405 116.199L121.797 113.997V88.3278C125.409 87.162 128.017 83.8959 128.017 80.0562C128.017 75.2424 123.919 71.3261 118.881 71.3261H106.246V68.1685C106.246 66.6298 104.941 65.3823 103.33 65.3823H96.9158V50.3369C96.9158 40.6596 92.0192 32.0548 84.4697 26.6652C84.4709 26.6307 84.4752 26.5965 84.4752 26.5616V17.0016C88.0868 15.8359 90.6955 12.5697 90.6955 8.73002C90.6955 3.91625 86.5971 0 81.5594 0C76.5217 0 72.4233 3.91625 72.4233 8.73002C72.4233 12.5697 75.032 15.8359 78.6436 17.0016V23.3946C74.7832 21.7348 70.509 20.8035 66.0086 20.8035C61.5083 20.8035 57.2341 21.7348 53.3737 23.3946V17.0016C56.9853 15.8359 59.594 12.5697 59.594 8.73002C59.594 3.91625 55.4956 0 50.4579 0C45.4202 0 41.3218 3.91625 41.3218 8.73002C41.3218 12.5697 43.9305 15.8359 47.5421 17.0016V26.5616C47.5421 26.5965 47.5464 26.6307 47.5476 26.6652C39.9981 32.0548 35.1015 40.6596 35.1015 50.3369V65.3823H28.6868C27.0762 65.3823 25.7711 66.6298 25.7711 68.1685V71.3261H13.1361C8.0984 71.3261 4 75.2424 4 80.0562C4 83.8959 6.60864 87.162 10.2203 88.3278V113.997L5.61184 116.199C4.62436 116.671 4 117.636 4 118.691V127.607C4 128.662 4.62398 129.627 5.61184 130.099L11.8321 133.071C12.2508 133.271 12.696 133.365 13.1341 133.365C14.2036 133.365 15.2335 132.801 15.7443 131.825C16.4647 130.448 15.8808 128.775 14.4404 128.087L9.83153 125.885V120.413L13.1361 118.835L16.4406 120.413V124.635C16.4406 126.174 17.7457 127.421 19.3564 127.421C20.967 127.421 22.2721 126.174 22.2721 124.635V118.691C22.2721 117.636 21.6482 116.671 20.6603 116.199L16.0518 113.997V88.7862H25.7711V100.86C25.7711 110.537 30.6676 119.142 38.2171 124.531C38.2159 124.566 38.2117 124.6 38.2117 124.635V142.467C38.2117 146.306 40.8203 149.572 44.432 150.738V154.54H38.0173C36.926 154.54 35.9265 155.122 35.4261 156.048L29.8201 166.428H28.6868C27.0762 166.428 25.7711 167.675 25.7711 169.214C25.7711 170.753 27.0762 172 28.6868 172H56.6782C58.2889 172 59.594 170.753 59.594 169.214V157.326C59.594 155.787 58.2889 154.54 56.6782 154.54H50.2635V150.738C53.8752 149.572 56.4838 146.306 56.4838 142.467V130.388C56.5487 130.389 56.6129 130.393 56.6782 130.393H75.3391C75.4044 130.393 75.4686 130.389 75.5335 130.388V142.467C75.5335 146.306 78.1421 149.572 81.7538 150.738V154.54H75.3391C73.7284 154.54 72.4233 155.787 72.4233 157.326V169.214C72.4233 170.753 73.7284 172 75.3391 172H103.33C104.941 172 106.246 170.753 106.246 169.214C106.246 167.675 104.941 166.428 103.33 166.428H102.197L96.5912 156.048C96.0908 155.122 95.0913 154.54 94 154.54H87.5853V150.738C91.197 149.572 93.8056 146.306 93.8056 142.467V124.635C93.8056 124.6 93.8013 124.566 93.8002 124.531C101.35 119.142 106.246 110.537 106.246 100.86V88.7862H115.965V113.997L111.357 116.199C110.37 116.671 109.745 117.636 109.745 118.691V124.635C109.745 126.174 111.05 127.421 112.661 127.421C114.272 127.421 115.577 126.174 115.577 124.635V120.413L118.881 118.834L122.186 120.413V125.885L117.577 128.086C116.137 128.774 115.553 130.448 116.273 131.824C116.784 132.801 117.814 133.365 118.884 133.365C119.322 133.365 119.766 133.27 120.186 133.07L126.406 130.098C127.393 129.627 128.018 128.662 128.018 127.607V118.691C128.017 117.636 127.393 116.671 126.405 116.199ZM81.5594 5.57235C83.3816 5.57235 84.8639 6.98885 84.8639 8.73002C84.8639 10.4712 83.3816 11.8877 81.5594 11.8877C79.7372 11.8877 78.2549 10.4712 78.2549 8.73002C78.2549 6.98885 79.7372 5.57235 81.5594 5.57235ZM50.4579 5.57235C52.28 5.57235 53.7624 6.98885 53.7624 8.73002C53.7624 10.4712 52.28 11.8877 50.4579 11.8877C48.6357 11.8877 47.1533 10.4712 47.1533 8.73002C47.1533 6.98885 48.6357 5.57235 50.4579 5.57235ZM53.7624 166.428H36.3825L39.7936 160.112H53.7624V166.428ZM95.6348 166.428H78.2549V160.112H92.2237L95.6348 166.428ZM118.881 83.2138C117.059 83.2138 115.577 81.7973 115.577 80.0562C115.577 78.315 117.059 76.8985 118.881 76.8985C120.703 76.8985 122.186 78.315 122.186 80.0562C122.186 81.7973 120.703 83.2138 118.881 83.2138ZM66.0086 26.3758C79.8352 26.3758 91.0842 37.1249 91.0842 50.3369V53.4946H40.933V50.3369C40.933 37.1249 52.1821 26.3758 66.0086 26.3758ZM40.933 59.067H91.0842V65.3823H40.933V59.067ZM13.1361 76.8985C14.9582 76.8985 16.4406 78.315 16.4406 80.0562C16.4406 81.7973 14.9582 83.2138 13.1361 83.2138C11.3139 83.2138 9.83153 81.7973 9.83153 80.0562C9.83153 78.315 11.3139 76.8985 13.1361 76.8985ZM21.6513 83.2138C22.0505 82.2338 22.2721 81.1695 22.2721 80.0562C22.2721 78.9428 22.0505 77.8785 21.6513 76.8985H25.7711V83.2138H21.6513ZM47.3477 145.624C45.5256 145.624 44.0432 144.208 44.0432 142.467C44.0432 140.725 45.5256 139.309 47.3477 139.309C49.1699 139.309 50.6523 140.725 50.6523 142.467C50.6523 144.208 49.1699 145.624 47.3477 145.624ZM50.6523 134.33C49.6267 133.948 48.5129 133.736 47.3477 133.736C46.1826 133.736 45.0688 133.948 44.0432 134.33V127.802C46.1348 128.701 48.3465 129.388 50.6523 129.825V134.33ZM31.6026 100.86V70.9546H63.0929V80.2419H53.568C46.8155 80.2419 41.3218 85.4914 41.3218 91.9438C41.3218 98.3963 46.8155 103.646 53.568 103.646H63.0929V124.821H56.6782C42.8516 124.821 31.6026 114.072 31.6026 100.86ZM53.568 98.0734C50.031 98.0734 47.1533 95.3237 47.1533 91.9438C47.1533 88.564 50.031 85.8143 53.568 85.8143H78.4492C81.9863 85.8143 84.8639 88.564 84.8639 91.9438C84.8639 95.3237 81.9863 98.0734 78.4492 98.0734H53.568ZM84.6695 145.624C82.8474 145.624 81.365 144.208 81.365 142.467C81.365 140.725 82.8474 139.309 84.6695 139.309C86.4917 139.309 87.9741 140.725 87.9741 142.467C87.9741 144.208 86.4917 145.624 84.6695 145.624ZM87.9741 134.33C86.9485 133.948 85.8347 133.736 84.6695 133.736C83.5044 133.736 82.3906 133.948 81.365 134.33V129.825C83.6708 129.388 85.8825 128.701 87.9741 127.802V134.33ZM100.415 100.86C100.415 114.072 89.1657 124.821 75.3391 124.821H68.9244V103.646H78.4492C85.2018 103.646 90.6955 98.3963 90.6955 91.9438C90.6955 85.4914 85.2018 80.2419 78.4492 80.2419H68.9244V70.9546H100.415V100.86ZM106.246 76.8985H110.366C109.967 77.8785 109.745 78.9428 109.745 80.0562C109.745 81.1695 109.967 82.2338 110.366 83.2138H106.246V76.8985Z"/>
</mask>
<path d="M126.405 116.199L121.797 113.997V88.3278C125.409 87.162 128.017 83.8959 128.017 80.0562C128.017 75.2424 123.919 71.3261 118.881 71.3261H106.246V68.1685C106.246 66.6298 104.941 65.3823 103.33 65.3823H96.9158V50.3369C96.9158 40.6596 92.0192 32.0548 84.4697 26.6652C84.4709 26.6307 84.4752 26.5965 84.4752 26.5616V17.0016C88.0868 15.8359 90.6955 12.5697 90.6955 8.73002C90.6955 3.91625 86.5971 0 81.5594 0C76.5217 0 72.4233 3.91625 72.4233 8.73002C72.4233 12.5697 75.032 15.8359 78.6436 17.0016V23.3946C74.7832 21.7348 70.509 20.8035 66.0086 20.8035C61.5083 20.8035 57.2341 21.7348 53.3737 23.3946V17.0016C56.9853 15.8359 59.594 12.5697 59.594 8.73002C59.594 3.91625 55.4956 0 50.4579 0C45.4202 0 41.3218 3.91625 41.3218 8.73002C41.3218 12.5697 43.9305 15.8359 47.5421 17.0016V26.5616C47.5421 26.5965 47.5464 26.6307 47.5476 26.6652C39.9981 32.0548 35.1015 40.6596 35.1015 50.3369V65.3823H28.6868C27.0762 65.3823 25.7711 66.6298 25.7711 68.1685V71.3261H13.1361C8.0984 71.3261 4 75.2424 4 80.0562C4 83.8959 6.60864 87.162 10.2203 88.3278V113.997L5.61184 116.199C4.62436 116.671 4 117.636 4 118.691V127.607C4 128.662 4.62398 129.627 5.61184 130.099L11.8321 133.071C12.2508 133.271 12.696 133.365 13.1341 133.365C14.2036 133.365 15.2335 132.801 15.7443 131.825C16.4647 130.448 15.8808 128.775 14.4404 128.087L9.83153 125.885V120.413L13.1361 118.835L16.4406 120.413V124.635C16.4406 126.174 17.7457 127.421 19.3564 127.421C20.967 127.421 22.2721 126.174 22.2721 124.635V118.691C22.2721 117.636 21.6482 116.671 20.6603 116.199L16.0518 113.997V88.7862H25.7711V100.86C25.7711 110.537 30.6676 119.142 38.2171 124.531C38.2159 124.566 38.2117 124.6 38.2117 124.635V142.467C38.2117 146.306 40.8203 149.572 44.432 150.738V154.54H38.0173C36.926 154.54 35.9265 155.122 35.4261 156.048L29.8201 166.428H28.6868C27.0762 166.428 25.7711 167.675 25.7711 169.214C25.7711 170.753 27.0762 172 28.6868 172H56.6782C58.2889 172 59.594 170.753 59.594 169.214V157.326C59.594 155.787 58.2889 154.54 56.6782 154.54H50.2635V150.738C53.8752 149.572 56.4838 146.306 56.4838 142.467V130.388C56.5487 130.389 56.6129 130.393 56.6782 130.393H75.3391C75.4044 130.393 75.4686 130.389 75.5335 130.388V142.467C75.5335 146.306 78.1421 149.572 81.7538 150.738V154.54H75.3391C73.7284 154.54 72.4233 155.787 72.4233 157.326V169.214C72.4233 170.753 73.7284 172 75.3391 172H103.33C104.941 172 106.246 170.753 106.246 169.214C106.246 167.675 104.941 166.428 103.33 166.428H102.197L96.5912 156.048C96.0908 155.122 95.0913 154.54 94 154.54H87.5853V150.738C91.197 149.572 93.8056 146.306 93.8056 142.467V124.635C93.8056 124.6 93.8013 124.566 93.8002 124.531C101.35 119.142 106.246 110.537 106.246 100.86V88.7862H115.965V113.997L111.357 116.199C110.37 116.671 109.745 117.636 109.745 118.691V124.635C109.745 126.174 111.05 127.421 112.661 127.421C114.272 127.421 115.577 126.174 115.577 124.635V120.413L118.881 118.834L122.186 120.413V125.885L117.577 128.086C116.137 128.774 115.553 130.448 116.273 131.824C116.784 132.801 117.814 133.365 118.884 133.365C119.322 133.365 119.766 133.27 120.186 133.07L126.406 130.098C127.393 129.627 128.018 128.662 128.018 127.607V118.691C128.017 117.636 127.393 116.671 126.405 116.199ZM81.5594 5.57235C83.3816 5.57235 84.8639 6.98885 84.8639 8.73002C84.8639 10.4712 83.3816 11.8877 81.5594 11.8877C79.7372 11.8877 78.2549 10.4712 78.2549 8.73002C78.2549 6.98885 79.7372 5.57235 81.5594 5.57235ZM50.4579 5.57235C52.28 5.57235 53.7624 6.98885 53.7624 8.73002C53.7624 10.4712 52.28 11.8877 50.4579 11.8877C48.6357 11.8877 47.1533 10.4712 47.1533 8.73002C47.1533 6.98885 48.6357 5.57235 50.4579 5.57235ZM53.7624 166.428H36.3825L39.7936 160.112H53.7624V166.428ZM95.6348 166.428H78.2549V160.112H92.2237L95.6348 166.428ZM118.881 83.2138C117.059 83.2138 115.577 81.7973 115.577 80.0562C115.577 78.315 117.059 76.8985 118.881 76.8985C120.703 76.8985 122.186 78.315 122.186 80.0562C122.186 81.7973 120.703 83.2138 118.881 83.2138ZM66.0086 26.3758C79.8352 26.3758 91.0842 37.1249 91.0842 50.3369V53.4946H40.933V50.3369C40.933 37.1249 52.1821 26.3758 66.0086 26.3758ZM40.933 59.067H91.0842V65.3823H40.933V59.067ZM13.1361 76.8985C14.9582 76.8985 16.4406 78.315 16.4406 80.0562C16.4406 81.7973 14.9582 83.2138 13.1361 83.2138C11.3139 83.2138 9.83153 81.7973 9.83153 80.0562C9.83153 78.315 11.3139 76.8985 13.1361 76.8985ZM21.6513 83.2138C22.0505 82.2338 22.2721 81.1695 22.2721 80.0562C22.2721 78.9428 22.0505 77.8785 21.6513 76.8985H25.7711V83.2138H21.6513ZM47.3477 145.624C45.5256 145.624 44.0432 144.208 44.0432 142.467C44.0432 140.725 45.5256 139.309 47.3477 139.309C49.1699 139.309 50.6523 140.725 50.6523 142.467C50.6523 144.208 49.1699 145.624 47.3477 145.624ZM50.6523 134.33C49.6267 133.948 48.5129 133.736 47.3477 133.736C46.1826 133.736 45.0688 133.948 44.0432 134.33V127.802C46.1348 128.701 48.3465 129.388 50.6523 129.825V134.33ZM31.6026 100.86V70.9546H63.0929V80.2419H53.568C46.8155 80.2419 41.3218 85.4914 41.3218 91.9438C41.3218 98.3963 46.8155 103.646 53.568 103.646H63.0929V124.821H56.6782C42.8516 124.821 31.6026 114.072 31.6026 100.86ZM53.568 98.0734C50.031 98.0734 47.1533 95.3237 47.1533 91.9438C47.1533 88.564 50.031 85.8143 53.568 85.8143H78.4492C81.9863 85.8143 84.8639 88.564 84.8639 91.9438C84.8639 95.3237 81.9863 98.0734 78.4492 98.0734H53.568ZM84.6695 145.624C82.8474 145.624 81.365 144.208 81.365 142.467C81.365 140.725 82.8474 139.309 84.6695 139.309C86.4917 139.309 87.9741 140.725 87.9741 142.467C87.9741 144.208 86.4917 145.624 84.6695 145.624ZM87.9741 134.33C86.9485 133.948 85.8347 133.736 84.6695 133.736C83.5044 133.736 82.3906 133.948 81.365 134.33V129.825C83.6708 129.388 85.8825 128.701 87.9741 127.802V134.33ZM100.415 100.86C100.415 114.072 89.1657 124.821 75.3391 124.821H68.9244V103.646H78.4492C85.2018 103.646 90.6955 98.3963 90.6955 91.9438C90.6955 85.4914 85.2018 80.2419 78.4492 80.2419H68.9244V70.9546H100.415V100.86ZM106.246 76.8985H110.366C109.967 77.8785 109.745 78.9428 109.745 80.0562C109.745 81.1695 109.967 82.2338 110.366 83.2138H106.246V76.8985Z" fill="#3B42EE" stroke="#DDC6C6" stroke-width="2" mask="url(#path-3-inside-1)"/>
</g>
<defs>
<filter id="filter0_d" x="0" y="0" width="132.018" height="180" filterUnits="userSpaceOnUse" color-interpolation-filters="sRGB">
<feFlood flood-opacity="0" result="BackgroundImageFix"/>
<feColorMatrix in="SourceAlpha" type="matrix" values="0 0 0 0 0 0 0 0 0 0 0 0 0 0 0 0 0 0 127 0"/>
<feOffset dy="4"/>
<feGaussianBlur stdDeviation="2"/>
<feColorMatrix type="matrix" values="0 0 0 0 0 0 0 0 0 0 0 0 0 0 0 0 0 0 0.25 0"/>
<feBlend mode="normal" in2="BackgroundImageFix" result="effect1_dropShadow"/>
<feBlend mode="normal" in="SourceGraphic" in2="effect1_dropShadow" result="shape"/>
</filter>
</defs>
</svg>
